<svg id="图层_1" data-name="图层 1" xmlns="http://www.w3.org/2000/svg" viewBox="0 0 13.66 19.44"><defs><style>.cls-1,.cls-2{fill:#fff;}.cls-1{stroke:#050101;stroke-miterlimit:8;stroke-width:0.25px;}</style></defs><title>马桶</title><path class="cls-1" d="M400.41,333.58l-1.4-1.64a6.56,6.56,0,0,1-.95-3.9H411.4l-.2,2.26a7.57,7.57,0,0,1-2,3.22l-1,.7-1.53.65c-.56.07-1.12.19-1.68.22A7,7,0,0,1,400.41,333.58Zm8.81-2.83,0,0c.08.06.19.18.24.16a1.71,1.71,0,0,0,.67-1.58.39.39,0,0,0-.3-.23.46.46,0,0,0-.31.23,11.38,11.38,0,0,0-.43,1.1C409,330.5,409.17,330.64,409.22,330.75Zm-1.41,1.91c.41-.36.83-.71,1.22-1.09.07-.07.05-.24.07-.36a1,1,0,0,0-.38,0c-.14.07-.24.22-.37.31l-1.8,1.2c-.11,0-.25,0-.33.13a4.67,4.67,0,0,0-.36.51c.21,0,.47.17.63.09A11.89,11.89,0,0,0,407.81,332.66Z" transform="translate(-397.87 -317.53)"/><path d="M411.2,330.3l.2-2.26H398.06a6.56,6.56,0,0,0,.95,3.9,1.35,1.35,0,0,1-.32-.31,7.22,7.22,0,0,1-.8-4.13c0-.16.27-.38.45-.43a4.29,4.29,0,0,1,1,0v-.71c0-2.63,0-5.25,0-7.88a2.7,2.7,0,0,1,.25-.74l-.15,2h10.37c0-.45,0-.85,0-1.25,0-.55-.2-.76-.75-.76-2,0-4,0-5.94,0l-3.55.05a2.32,2.32,0,0,1,.65-.2H409c.78,0,.93.16.93.94,0,2.58,0,5.17,0,7.75v.83a5.83,5.83,0,0,1,1,0c.2,0,.53.24.52.35C411.43,328.38,411.31,329.34,411.2,330.3Zm-1.45-10.36H399.49V327h10.26Zm1.55,7.94c.15-.48,0-.68-.47-.68H398.58c-.54,0-.63.22-.5.68Z" transform="translate(-397.87 -317.53)"/><path d="M408.22,334.22l1-.7a3.71,3.71,0,0,0-.28.81c-.09.74-.11,1.49-.18,2.23,0,.33-.25.4-.56.4-2.35,0-4.7,0-7,0-.64,0-.71-.43-.73-.83,0-.85,0-1.71,0-2.56a7,7,0,0,0,4.6,1.51c.56,0,1.12-.15,1.68-.22-.08,0-.15.12-.24.14a6.69,6.69,0,0,1-5.39-.82l-.55-.32c0,.75,0,1.4,0,2.05,0,.42.17.53.55.53.67,0,1.34,0,2,0h5.08c.28,0,.6.05.6-.4v-2Zm.24,2.53v-.12h-7.73v.12Z" transform="translate(-397.87 -317.53)"/><path class="cls-2" d="M408.22,334.22l.52-.21v2c0,.45-.32.4-.6.4h-5.08c-.67,0-1.34,0-2,0-.38,0-.57-.11-.55-.53,0-.65,0-1.3,0-2.05l.55.32a6.69,6.69,0,0,0,5.39.82c.09,0,.16-.1.24-.14Z" transform="translate(-397.87 -317.53)"/><path class="cls-2" d="M406.55,332.73l1.8-1.2c.13-.09.23-.24.37-.31a1,1,0,0,1,.38,0c0,.12,0,.29-.07.36-.39.38-.81.73-1.22,1.09-.62.14-1.08.79-1.94.68Z" transform="translate(-397.87 -317.53)"/><path d="M409.22,330.75c-.05-.11-.18-.25-.15-.34a11.38,11.38,0,0,1,.43-1.1.46.46,0,0,1,.31-.23.39.39,0,0,1,.3.23,1.71,1.71,0,0,1-.67,1.58c-.05,0-.16-.1-.24-.16a1.06,1.06,0,0,0,.56-1.6Z" transform="translate(-397.87 -317.53)"/><path class="cls-2" d="M409.22,330.75l.54-1.62a1.06,1.06,0,0,1-.56,1.6Z" transform="translate(-397.87 -317.53)"/><path d="M406.55,332.73l-.68.61c.86.11,1.32-.54,1.94-.68a11.89,11.89,0,0,1-1.32.8c-.16.08-.42,0-.63-.09a4.67,4.67,0,0,1,.36-.51C406.3,332.78,406.44,332.77,406.55,332.73Z" transform="translate(-397.87 -317.53)"/><path class="cls-2" d="M409.75,319.94V327H399.49v-7.07Zm-9.18.82v1.38h.11v-1.29h1.42v-.09Z" transform="translate(-397.87 -317.53)"/><path class="cls-2" d="M399.54,317.74l3.55-.05c2,0,4,0,5.94,0,.55,0,.79.21.75.76,0,.4,0,.8,0,1.25H399.41l.15-2Z" transform="translate(-397.87 -317.53)"/><path class="cls-2" d="M411.3,327.88H398.08c-.13-.46,0-.68.5-.68h12.25C411.33,327.2,411.45,327.4,411.3,327.88Z" transform="translate(-397.87 -317.53)"/><path class="cls-2" d="M408.46,336.75h-7.72v-.12h7.73Z" transform="translate(-397.87 -317.53)"/><path d="M400.57,320.76h1.52v.09h-1.42v1.29h-.11Z" transform="translate(-397.87 -317.53)"/></svg>