<svg id="图层_1" data-name="图层 1" xmlns="http://www.w3.org/2000/svg" viewBox="0 0 20.15 9.03"><defs><style>.cls-1,.cls-2{stroke:#050101;stroke-miterlimit:8;stroke-width:0.15px;}.cls-2{fill:#fff;}</style></defs><title>床</title><path class="cls-1" d="M385.67,325.84v-7h.57v2.43c0,.08,0,.13.12.13h3.77c-.42-.1-.84-.18-1.26-.3a2.79,2.79,0,0,1-1.39-.84,4.19,4.19,0,0,1-.66-1.14c-.08-.19-.18-.38-.27-.58a5.68,5.68,0,0,1,1.2-.27,6.46,6.46,0,0,1,4.41,1.14,1.53,1.53,0,0,1,.57.64,1.27,1.27,0,0,0,.41.48c.08.06.08.1,0,.17a1.1,1.1,0,0,1-.69.39c-.55.13-1.1.21-1.56.3h14.16v4.41c-.14,0-.27,0-.4,0s-.12,0-.13.11c-.06.35-.14.69-.2,1,0,.11,0,.17-.18.16a1.74,1.74,0,0,0-.32,0c-.09,0-.12,0-.14-.1,0-.36-.1-.71-.14-1.06,0-.11-.06-.14-.17-.14H387.9c-.24,0-.24,0-.29.24s-.13.63-.18.95c0,.1-.06.12-.15.11a1.93,1.93,0,0,0-.34,0c-.11,0-.13,0-.15-.13,0-.35-.1-.7-.14-1,0-.11-.06-.13-.16-.13C386.22,325.85,386,325.84,385.67,325.84ZM405,321.52H386.34V324H405Zm-18.65,4.23H405v-1.68H386.33Zm6.75-5.05,0-.06a1.52,1.52,0,0,1-.53-.65,1.38,1.38,0,0,0-.44-.46,7.2,7.2,0,0,0-2.32-1,6.21,6.21,0,0,0-2.54,0l-.32.07a2.61,2.61,0,0,1,1.31,1.29,1.06,1.06,0,0,1,1.19.14,5.57,5.57,0,0,1,.59.5.19.19,0,0,0,.24.06,3.09,3.09,0,0,1,2.35.12A1.56,1.56,0,0,0,393.08,320.7Zm-6.39-2.06a4.28,4.28,0,0,0,.19.43q.25.53.54,1a1.84,1.84,0,0,0,.62.59,5,5,0,0,0,2.08.64,5.44,5.44,0,0,0,1.61-.11,3.11,3.11,0,0,0,1.16-.34l.12-.08v0a1,1,0,0,1-.65-.14,2.62,2.62,0,0,0-1.17-.18c-.32.05-.63.12-.95.2a.18.18,0,0,1-.17-.05,9.6,9.6,0,0,0-.79-.64.9.9,0,0,0-1,0h0c-.12-.19-.23-.39-.36-.56a2,2,0,0,0-.89-.71A.34.34,0,0,0,386.69,318.64Zm-.53,7.11V319h-.41v6.8Zm.56.1a.45.45,0,0,0,0,.12c0,.26.07.51.11.76s.05.34.39.34c.08,0,.12,0,.13-.12l.12-.61.09-.49Zm17.76,0h-.86s0,.09,0,.13c0,.25.08.5.11.74s.05.35.41.35c.07,0,.1,0,.11-.1l.12-.6C404.41,326.2,404.44,326,404.48,325.85Z" transform="translate(-385.59 -318.19)"/><path class="cls-1" d="M405.67,325.83h-.57v-7h.57Zm-.49-.07h.26c.12,0,.16,0,.16-.16v-6.53c0-.05,0-.09,0-.14h-.41Z" transform="translate(-385.59 -318.19)"/><path class="cls-2" d="M405,321.52V324H386.34v-2.45Z" transform="translate(-385.59 -318.19)"/><path class="cls-2" d="M386.33,325.75v-1.68H405v1.68Z" transform="translate(-385.59 -318.19)"/><path class="cls-2" d="M393.08,320.7a1.56,1.56,0,0,1-.44-.06,3.09,3.09,0,0,0-2.35-.12.19.19,0,0,1-.24-.06,5.57,5.57,0,0,0-.59-.5,1.06,1.06,0,0,0-1.19-.14,2.61,2.61,0,0,0-1.31-1.29l.32-.07a6.21,6.21,0,0,1,2.54,0,7.2,7.2,0,0,1,2.32,1,1.38,1.38,0,0,1,.44.46,1.52,1.52,0,0,0,.53.65Z" transform="translate(-385.59 -318.19)"/><path class="cls-2" d="M386.69,318.64a.34.34,0,0,1,.31,0,2,2,0,0,1,.89.71c.13.17.24.37.36.56,0,0,0,0,0,0a.9.9,0,0,1,1,0,9.6,9.6,0,0,1,.79.64.18.18,0,0,0,.17.05c.32-.08.63-.15.95-.2a2.62,2.62,0,0,1,1.17.18,1,1,0,0,0,.65.14v0l-.12.08a3.11,3.11,0,0,1-1.16.34,5.44,5.44,0,0,1-1.61.11,5,5,0,0,1-2.08-.64,1.84,1.84,0,0,1-.62-.59q-.29-.49-.54-1A4.28,4.28,0,0,1,386.69,318.64Z" transform="translate(-385.59 -318.19)"/><path class="cls-2" d="M386.16,325.75h-.41V319h.41Z" transform="translate(-385.59 -318.19)"/><path class="cls-2" d="M386.72,325.85h.85l-.09.49-.12.61c0,.09-.05.12-.13.12-.34,0-.34,0-.39-.34s-.08-.5-.11-.76A.45.45,0,0,1,386.72,325.85Z" transform="translate(-385.59 -318.19)"/><path class="cls-2" d="M404.48,325.85c0,.18-.07.35-.1.52l-.12.6c0,.07,0,.09-.11.1-.36,0-.36,0-.41-.35s-.07-.49-.11-.74c0,0,0-.08,0-.13Z" transform="translate(-385.59 -318.19)"/><path class="cls-2" d="M405.18,325.76v-6.82h.41c0,.05,0,.09,0,.14v6.53c0,.13,0,.17-.16.16Z" transform="translate(-385.59 -318.19)"/></svg>