<svg id="图层_1" data-name="图层 1" xmlns="http://www.w3.org/2000/svg" viewBox="0 0 22.1 22.13"><defs><style>.cls-1{fill:none;stroke:#040000;stroke-linecap:round;stroke-linejoin:round;stroke-width:0.5px;}</style></defs><title>书</title><path class="cls-1" d="M408,338.5a11.54,11.54,0,0,0-10.83,0V318.14a12.2,12.2,0,0,1,10.83,0V338.5" transform="translate(-396.9 -316.62)"/><path class="cls-1" d="M399.72,322.63a5.69,5.69,0,0,1,5.75,0" transform="translate(-396.9 -316.62)"/><path class="cls-1" d="M399.72,332.8a5.69,5.69,0,0,1,5.75,0" transform="translate(-396.9 -316.62)"/><path class="cls-1" d="M408,338.5a11.4,11.4,0,0,1,10.76,0V318.14a12.05,12.05,0,0,0-10.76,0V338.5" transform="translate(-396.9 -316.62)"/><path class="cls-1" d="M416.3,322.63a5.93,5.93,0,0,0-5.88,0" transform="translate(-396.9 -316.62)"/><path class="cls-1" d="M399.72,327.78a5.69,5.69,0,0,1,5.75,0" transform="translate(-396.9 -316.62)"/><path class="cls-1" d="M416.3,327.78a5.93,5.93,0,0,0-5.88,0" transform="translate(-396.9 -316.62)"/><path class="cls-1" d="M416.3,332.8a5.93,5.93,0,0,0-5.88,0" transform="translate(-396.9 -316.62)"/></svg>