<svg id="图层_1" data-name="图层 1" xmlns="http://www.w3.org/2000/svg" viewBox="0 0 23.3 16.32"><defs><style>.cls-1{fill:#fff;}.cls-2{fill:none;stroke:#040000;stroke-miterlimit:8;stroke-width:0.05px;}</style></defs><title>车库</title><path d="M398.91,325.76l2.24-.83,8.71-3.13a1.68,1.68,0,0,1,1.21,0c1.38.52,2.78,1,4.17,1.48l6.78,2.36a.83.83,0,0,1,.18.07c-.07.26-.15.53-.23.78a.23.23,0,0,1-.15.1,4.5,4.5,0,0,1-.6.17c-.15,0-.19.1-.18.24a.57.57,0,0,1,0,.13V338l-.19,0c-.86,0-1.72,0-2.58,0a.62.62,0,0,1-.59-.31.64.64,0,0,0-.6-.29H404a.71.71,0,0,0-.68.32.58.58,0,0,1-.5.28h-2.71v-.31l0-10.48c0-.39.07-.37-.33-.44a.81.81,0,0,1-.77-.73A1.5,1.5,0,0,0,398.91,325.76Zm3.8,2H418.3v9.93h2.45v-.32c0-3.57,0-7.15,0-10.72a.34.34,0,0,0-.27-.38l-9.9-3.56a.41.41,0,0,0-.29,0l-5,1.84-4.53,1.7c-.45.16-.38.09-.38.53v10.7c0,.08,0,.15,0,.22h2.31ZM417.86,335H403.07c0,.52,0,1,0,1.52,0,.22.06.28.28.28h14.51Zm-14.78-2h14.78V331.2H403.08Zm14.78.14H403.09v1.74h14.77Zm0-2v-1.73H403.09v1.73Zm3.76-4.87c.1-.15.09-.23-.1-.29-1.4-.48-2.8-1-4.19-1.46l-6.57-2.31a.8.8,0,0,0-.59,0l-10.53,3.77a.29.29,0,0,0-.15.09.19.19,0,0,0,0,.15s.08.06.12.06a.43.43,0,0,0,.14,0l10.51-3.77a.65.65,0,0,1,.39,0c3.09,1.07,6.18,2.16,9.26,3.24Zm-11.29,2.17c0,.13,0,.26,0,.38s-.06.27-.26.27h-2.68c-.14,0-.28,0-.45,0,0-.15,0-.28,0-.4s0-.28-.22-.2c0,.12,0,.24,0,.36s-.05.28-.26.28h-2.72c-.13,0-.26,0-.41,0l.14-.62c-.2,0-.34.4-.34.84h14.71c0-.22-.06-.42-.09-.62s0-.27-.31-.19l.06.6-.29,0h-2.56c-.5,0-.5,0-.53-.49,0-.16-.08-.2-.23-.14V329h-3.36c0-.15,0-.27,0-.4S410.59,328.29,410.33,328.36Zm3.46,0h-.21c-.9,0-1.8,0-2.71,0-.26,0-.22.14-.22.3s0,.28.22.27h2.78l.17,0Zm-3.59,0h-2.67c-.48,0-.48,0-.46.48,0,0,0,0,0,.06h3.1Zm7.21.55c0-.11,0-.19,0-.27,0-.23-.09-.29-.32-.29-.86,0-1.72,0-2.58,0h-.25l0,.54Zm-13.92,0h2.67c.5,0,.5,0,.46-.51l0-.05h-2.5C403.57,328.34,403.57,328.34,403.49,328.9Z" transform="translate(-398.91 -321.7)"/><path class="cls-1" d="M402.71,327.78v9.93H400.4c0-.07,0-.14,0-.22v-10.7c0-.44-.07-.37.38-.53l4.53-1.7,5-1.84a.41.41,0,0,1,.29,0l9.9,3.56a.34.34,0,0,1,.27.38c0,3.57,0,7.15,0,10.72v.32H418.3v-9.93Zm7.73-.61a.73.73,0,0,0,.82-.85.47.47,0,0,0-.14-.29.9.9,0,0,0-1.23.26C409.62,326.84,409.83,327.17,410.44,327.17Z" transform="translate(-398.91 -321.7)"/><path class="cls-1" d="M417.86,335v1.8H403.35c-.22,0-.29-.06-.28-.28,0-.5,0-1,0-1.52Zm-3.93.21h-3c-.39,0-.39,0-.39.38s0,.64,0,1h3.39Zm-10.64,1.33h3.37v-1.35h-3.25s-.12.07-.12.11C403.28,335.67,403.29,336.07,403.29,336.5Zm7-1.34h-3.35v1.34h3.35Zm3.9,0v1.33h3.35v-1.33Z" transform="translate(-398.91 -321.7)"/><path class="cls-1" d="M403.08,333V331.2h14.78V333Zm7.47-1.55v1.34h3.37V331.4Zm-3.88,0h-3.39c0,.38,0,.74,0,1.1,0,.19.07.25.26.24h2.89l.24,0Zm3.61,1.33v-1.33h-3.34v1.33Zm7.27-1.33h-3.36v1.29s0,0,0,0h3.2a.18.18,0,0,0,.12-.13C417.55,332.22,417.55,331.83,417.55,331.41Z" transform="translate(-398.91 -321.7)"/><path class="cls-1" d="M417.86,333.09v1.74H403.09v-1.74Zm-7.31,1.5.07,0h3.17c.12,0,.14-.06.14-.16,0-.32,0-.64,0-.95s-.06-.24-.24-.24h-3.15Zm-3.88-1.28-.05,0-3.2,0c-.05,0-.13.1-.13.15,0,.32,0,.65,0,1s.06.24.24.24h3.15Zm.26,1.3h3.36v-1.33h-3.36Zm7.26,0h3.35v-1.33h-3.35Z" transform="translate(-398.91 -321.7)"/><path class="cls-1" d="M417.86,331.06H403.09v-1.73h14.77Zm-3.94-.2v-1.35h-3.18c-.07,0-.19.07-.19.1,0,.41,0,.82,0,1.25Zm-10.61-1.34v1.33h3.36v-1.33Zm7,0h-3.35v1.33h3.35Zm3.91,0v1.34h3.34v-1.34Z" transform="translate(-398.91 -321.7)"/><path class="cls-1" d="M421.62,326.19l-1.73-.59c-3.08-1.08-6.17-2.17-9.26-3.24a.65.65,0,0,0-.39,0l-10.51,3.77a.43.43,0,0,1-.14,0s-.11,0-.12-.06a.19.19,0,0,1,0-.15.29.29,0,0,1,.15-.09l10.53-3.77a.8.8,0,0,1,.59,0l6.57,2.31c1.39.5,2.79,1,4.19,1.46C421.71,326,421.72,326,421.62,326.19Z" transform="translate(-398.91 -321.7)"/><path class="cls-1" d="M410.33,328.36c.26-.07.22.09.22.22s0,.25,0,.4h3.36v-.61c.15-.06.22,0,.23.14,0,.49,0,.49.53.49h2.56l.29,0-.06-.6c.26-.08.28-.07.31.19s.06.4.09.62H403.15c0-.44.14-.83.34-.84l-.14.62c.15,0,.28,0,.41,0h2.72c.21,0,.28-.08.26-.28s0-.24,0-.36c.24-.08.23.05.22.2s0,.25,0,.4c.17,0,.31,0,.45,0h2.68c.2,0,.28-.07.26-.27S410.33,328.49,410.33,328.36Z" transform="translate(-398.91 -321.7)"/><path class="cls-1" d="M413.79,328.35l0,.53-.17,0h-2.78c-.24,0-.22-.12-.22-.27s0-.3.22-.3c.91,0,1.81,0,2.71,0Z" transform="translate(-398.91 -321.7)"/><path class="cls-1" d="M410.2,328.34v.54h-3.1s0,0,0-.06c0-.48,0-.48.46-.48h2.67Z" transform="translate(-398.91 -321.7)"/><path class="cls-1" d="M417.41,328.89h-3.15l0-.54h.25c.86,0,1.72,0,2.58,0,.23,0,.33.06.32.29C417.38,328.7,417.4,328.78,417.41,328.89Z" transform="translate(-398.91 -321.7)"/><path class="cls-1" d="M403.49,328.9c.08-.56.08-.56.59-.56h2.5l0,.05c0,.51,0,.51-.46.51h-2.67Z" transform="translate(-398.91 -321.7)"/><path d="M410.44,327.17c-.61,0-.82-.33-.55-.88a.9.9,0,0,1,1.23-.26.47.47,0,0,1,.14.29A.73.73,0,0,1,410.44,327.17Zm.14-.42.32,0c.17,0,.23-.12.23-.27s0-.34-.18-.36a2.51,2.51,0,0,0-.67,0c-.18,0-.23.2-.21.36a.27.27,0,0,0,.28.28Z" transform="translate(-398.91 -321.7)"/><path d="M413.93,335.17v1.33h-3.39c0-.33,0-.65,0-1s0-.38.39-.38h3Zm-3.28,1.24h3c.07,0,.19-.07.19-.11,0-.34,0-.68,0-1h-3.18Z" transform="translate(-398.91 -321.7)"/><path d="M403.29,336.5c0-.43,0-.83,0-1.23,0,0,.08-.11.12-.11h3.25v1.35Zm3.28-1.23H403.4v1.12h3.17Z" transform="translate(-398.91 -321.7)"/><path d="M410.29,335.16v1.34h-3.35v-1.34Zm-3.25.11v1.12h3.15v-1.12Z" transform="translate(-398.91 -321.7)"/><path d="M414.19,335.16h3.35v1.33h-3.35Zm.09,1.24h3.16v-1.13h-3.16Z" transform="translate(-398.91 -321.7)"/><path d="M410.55,331.4h3.37v1.34h-3.37Zm3.27.11h-3.18c0,.32,0,.62,0,.92s.06.22.23.22h2.8l.16,0Z" transform="translate(-398.91 -321.7)"/><path d="M406.67,331.41v1.32l-.24,0h-2.89c-.19,0-.27-.05-.26-.24,0-.36,0-.72,0-1.1Zm-3.28.1c0,.35,0,.67,0,1,0,0,.1.13.15.13h2.89c.05,0,.14-.08.14-.12,0-.34,0-.67,0-1Z" transform="translate(-398.91 -321.7)"/><path d="M410.28,332.74h-3.34v-1.33h3.34Zm-.08-.1c0-.35,0-.68,0-1,0-.05-.09-.13-.14-.13h-2.88c-.05,0-.14.06-.14.09,0,.35,0,.7,0,1.05Z" transform="translate(-398.91 -321.7)"/><path d="M417.55,331.41c0,.42,0,.81,0,1.2a.18.18,0,0,1-.12.13h-3.2s0,0,0,0v-1.29Zm-3.28,1.23h3.19V332c0-.47,0-.47-.48-.47h-2.5c-.1,0-.21,0-.21.14C414.28,332,414.27,332.29,414.27,332.64Z" transform="translate(-398.91 -321.7)"/><path d="M410.55,334.59v-1.31h3.15c.18,0,.24.06.24.24s0,.63,0,.95c0,.1,0,.16-.14.16h-3.17Zm3.28-.08c0-.31,0-.61,0-.9s-.06-.25-.25-.25h-2.94v1.13Z" transform="translate(-398.91 -321.7)"/><path d="M406.67,333.31v1.3h-3.15c-.18,0-.24-.06-.24-.24s0-.65,0-1c0-.05.08-.15.13-.15l3.2,0Zm-3.27,1.19h3.16v-1.11H403.4Z" transform="translate(-398.91 -321.7)"/><path d="M406.93,334.61v-1.33h3.36v1.33Zm.1-.1h3.16v-1.12H407Z" transform="translate(-398.91 -321.7)"/><path d="M414.19,334.61v-1.33h3.35v1.33Zm.09-.1h3.16v-1.12h-3.16Z" transform="translate(-398.91 -321.7)"/><path class="cls-2" d="M413.92,330.86h-3.38c0-.43,0-.84,0-1.25,0,0,.12-.1.19-.1h3.18Z" transform="translate(-398.91 -321.7)"/><path class="cls-2" d="M403.31,329.52h3.36v1.33h-3.36Z" transform="translate(-398.91 -321.7)"/><path class="cls-2" d="M410.29,329.53v1.33h-3.35v-1.33Z" transform="translate(-398.91 -321.7)"/><path class="cls-2" d="M414.2,329.52h3.34v1.34H414.2Z" transform="translate(-398.91 -321.7)"/><path class="cls-1" d="M410.58,326.75l-.23,0a.27.27,0,0,1-.28-.28c0-.16,0-.33.21-.36a2.51,2.51,0,0,1,.67,0c.2,0,.19.21.18.36s-.06.26-.23.27Z" transform="translate(-398.91 -321.7)"/><path class="cls-1" d="M410.65,336.41v-1.14h3.18c0,.35,0,.69,0,1,0,0-.12.11-.19.11h-3Z" transform="translate(-398.91 -321.7)"/><path class="cls-1" d="M406.57,335.27v1.12H403.4v-1.12Z" transform="translate(-398.91 -321.7)"/><path class="cls-1" d="M407,335.27h3.15v1.12H407Z" transform="translate(-398.91 -321.7)"/><path class="cls-1" d="M414.28,336.4v-1.13h3.16v1.13Z" transform="translate(-398.91 -321.7)"/><path class="cls-1" d="M413.82,331.51v1.12l-.16,0h-2.8c-.17,0-.23,0-.23-.22s0-.6,0-.92Z" transform="translate(-398.91 -321.7)"/><path class="cls-1" d="M403.39,331.51h3.19c0,.35,0,.68,0,1,0,0-.09.12-.14.12h-2.89c-.05,0-.14-.09-.15-.13C403.38,332.18,403.39,331.86,403.39,331.51Z" transform="translate(-398.91 -321.7)"/><path class="cls-1" d="M410.2,332.64H407c0-.35,0-.7,0-1.05,0,0,.09-.09.14-.09h2.88c.05,0,.14.08.14.13C410.21,332,410.2,332.29,410.2,332.64Z" transform="translate(-398.91 -321.7)"/><path class="cls-1" d="M414.27,332.64c0-.35,0-.67,0-1,0-.16.11-.14.21-.14H417c.48,0,.48,0,.48.47v.67Z" transform="translate(-398.91 -321.7)"/><path class="cls-1" d="M413.83,334.51h-3.18v-1.13h2.94c.19,0,.26.06.25.25S413.83,334.2,413.83,334.51Z" transform="translate(-398.91 -321.7)"/><path class="cls-1" d="M403.4,334.5v-1.11h3.16v1.11Z" transform="translate(-398.91 -321.7)"/><path class="cls-1" d="M407,334.51v-1.12h3.16v1.12Z" transform="translate(-398.91 -321.7)"/><path class="cls-1" d="M414.28,334.51v-1.12h3.16v1.12Z" transform="translate(-398.91 -321.7)"/></svg>