<svg id="图层_1" data-name="图层 1" xmlns="http://www.w3.org/2000/svg" viewBox="0 0 11.43 17.95"><defs><style>.cls-1,.cls-3{fill:#fff;}.cls-1,.cls-2{stroke:#040000;stroke-miterlimit:10;stroke-width:0.25px;}</style></defs><title>美元</title><path class="cls-1" d="M393,263.45l-.66-.67-1.59-1.86c.58-.23,1.07-.4,1.53-.62a.59.59,0,0,1,.84.2,5.68,5.68,0,0,0,3,2,2.1,2.1,0,0,0,2.65-2.58c-.28-1-1.09-1.3-1.94-1.6-1.34-.47-2.68-1-4-1.47l0,0c-.09-.12-.18-.25-.28-.37a3.41,3.41,0,0,1-.74-3.44,8,8,0,0,1,1-1.61l0,0a4.37,4.37,0,0,1,1.09-.48c1.13-.2,1.66-.78,1.42-1.95,0,0,.05-.07.07-.1h1.45v.5c0,1.1,0,1.11,1.05,1.49a4.82,4.82,0,0,1,2.79,2.33c-.46.16-.87.27-1.25.44a.93.93,0,0,1-1.09-.17,6,6,0,0,0-1.62-.94,2,2,0,0,0-2.76,1.15c-.13.42-.14.8.33,1l.24.32c.83.33,1.65.68,2.49,1s1.77.56,2.66.84c.18.06.35.15.53.22l.11.26c.17.26.36.52.52.78a4.11,4.11,0,0,1-2.74,6.22l-1.1.2v1.73h-1.82c0-.49,0-.93,0-1.37,0-.17,0-.43-.13-.49C394.37,264.09,393.69,263.78,393,263.45Z" transform="translate(-390.32 -248.69)"/><path d="M394.28,254.75c-.47-.23-.46-.61-.33-1a2,2,0,0,1,2.76-1.15,6,6,0,0,1,1.62.94.93.93,0,0,0,1.09.17c.38-.17.79-.28,1.25-.44a4.82,4.82,0,0,0-2.79-2.33c-1.05-.38-1-.39-1.05-1.49v-.5h-1.45s-.08.07-.07.1c.24,1.17-.29,1.75-1.42,1.95a4.37,4.37,0,0,0-1.09.48l2.31-1.31v-1.45H397v1.7c1.69.51,3.19,1.21,4,3-.73.24-1.42.5-2.12.69-.14,0-.34-.15-.5-.26l-1.3-1c0,1,0,1.84,0,2.67,0,.18.4.4.65.45a4.12,4.12,0,0,1,2.45,1.14c-.18-.07-.35-.16-.53-.22-.89-.28-1.78-.53-2.66-.84s-1.66-.65-2.49-1l.52.09v-2.31A1.29,1.29,0,0,0,394.28,254.75Zm2.56,1c0-.76,0-1.42,0-2.09,0-.95-.11-1-1.08-1-.15,0-.29.05-.5.08,0,.77,0,1.5,0,2.24a.57.57,0,0,0,.28.43A11.59,11.59,0,0,0,396.84,255.79Z" transform="translate(-390.32 -248.69)"/><path d="M392.8,256.83c1.34.49,2.68,1,4,1.47.85.3,1.66.64,1.94,1.6a2.1,2.1,0,0,1-2.65,2.58,5.68,5.68,0,0,1-3-2,.59.59,0,0,0-.84-.2c-.46.22-1,.39-1.53.62l1.59,1.86-2-1.89c.91-.37,1.6-.67,2.3-.91.14-.05.39.13.54.26.55.5,1.09,1,1.63,1.53l.17-.1c0-1.13,0-2.26,0-3.39,0-.14-.24-.31-.4-.41C394,257.51,393.38,257.17,392.8,256.83Zm2.36,1.37v.74c0,.85,0,1.71,0,2.56,0,.16.08.41.19.45.48.17,1,.28,1.55.44v-2.34c0-1.6,0-1.6-1.59-1.89C395.3,258.15,395.28,258.17,395.16,258.2Zm2,4a1.67,1.67,0,0,0,1.48-1.84,1.68,1.68,0,0,0-1.48-1.63Z" transform="translate(-390.32 -248.69)"/><path class="cls-2" d="M393,263.45c.68.33,1.36.64,2,1,.1.06.12.32.13.49,0,.44,0,.88,0,1.37H397v-1.73l1.1-.2a4.11,4.11,0,0,0,2.74-6.22c-.16-.26-.35-.52-.52-.78a2.87,2.87,0,0,1,1.29,2.48c.26,2.68-1.38,4.49-4.4,4.88v1.79H395c0-.5,0-1,0-1.43a.62.62,0,0,0-.44-.7A16.1,16.1,0,0,1,393,263.45Z" transform="translate(-390.32 -248.69)"/><path d="M392.82,251.43a8,8,0,0,0-1,1.61,3.41,3.41,0,0,0,.74,3.44c.1.12.19.25.28.37a3.09,3.09,0,0,1-1.37-3.07A2.49,2.49,0,0,1,392.82,251.43Z" transform="translate(-390.32 -248.69)"/><path class="cls-3" d="M394.28,254.75a1.29,1.29,0,0,1,.76-1.9v2.31l-.52-.09Z" transform="translate(-390.32 -248.69)"/><path class="cls-3" d="M396.84,255.79a11.59,11.59,0,0,1-1.28-.37.57.57,0,0,1-.28-.43c0-.74,0-1.47,0-2.24.21,0,.35-.07.5-.08,1,0,1.08.08,1.08,1C396.85,254.37,396.84,255,396.84,255.79Z" transform="translate(-390.32 -248.69)"/><path class="cls-3" d="M395.16,258.2c.12,0,.14-.05.16,0,1.57.29,1.57.29,1.59,1.89v2.34c-.57-.16-1.07-.27-1.55-.44-.11,0-.19-.29-.19-.45,0-.85,0-1.71,0-2.56Z" transform="translate(-390.32 -248.69)"/><path class="cls-3" d="M397.15,262.22v-3.47a1.68,1.68,0,0,1,1.48,1.63A1.67,1.67,0,0,1,397.15,262.22Z" transform="translate(-390.32 -248.69)"/></svg>