<svg id="图层_1" data-name="图层 1" xmlns="http://www.w3.org/2000/svg" viewBox="0 0 15.1 15.19"><defs><style>.cls-1{fill:#fff;}</style></defs><title>尺子</title><path d="M403.08,322.24H406c.12,0,.17,0,.17.17q0,4,0,8.07,0,3.28,0,6.57c0,.19,0,.19-.2.19h-2.7c-.12,0-.17,0-.17-.15q0-3.66,0-7.31l0-7.37A.92.92,0,0,1,403.08,322.24Zm2.38,14.88.06-14.76h-2.34l-.06,14.76Zm.17-14.75-.05,14.75H406l.06-14.75h-.38Z" transform="translate(-403 -322.24)"/><path class="cls-1" d="M405.46,337.12h-2.34l.06-14.76h2.34Zm-.72-.95a.33.33,0,0,0-.43-.08.31.31,0,0,0,.35.51A.33.33,0,0,0,404.74,336.17Zm-1.38-9.55v.11H404c.08,0,.12,0,.08-.11Zm.7,10.11,0,0h-.73v.11H404S404,336.76,404.06,336.73Zm.05-12.08,0,0h-.72v.12H404S404.07,324.67,404.11,324.65Zm0,6,0-.05h-.63c-.1,0-.09,0-.07.11H404S404.05,330.71,404.09,330.69Zm-.75,4.1h.71l0,0s-.07-.07-.1-.07h-.56C403.32,334.67,403.31,334.7,403.34,334.79Zm0-12.13,0,0h.7l0,0s-.07-.06-.11-.07h-.56S403.39,322.63,403.35,322.66Zm0,6,0,.05s.06.06.1.06H404s.06,0,.09-.07l0,0Zm.73,4.15c0-.06-.06-.11-.08-.11h-.68l0,0s.07.07.1.07Zm-.74-4.56v.12h.35v-.12Zm.41-4.81c-.38,0-.4,0-.37.11C403.5,323.46,403.66,323.61,403.76,323.41Zm-.39.9h.36v-.1C403.4,324.18,403.37,324.19,403.37,324.31Zm0-1.32c0,.13,0,.13.34.11,0-.08,0-.11-.07-.11Zm0,2.83c0,.12.06.13.36.09C403.72,325.8,403.72,325.8,403.36,325.82Zm.31,10.18,0,0s-.06-.07-.09-.07h-.29V336Zm.06-12.19c-.33,0-.37,0-.34.1h.34Zm0,1.31c0-.13,0-.14-.35-.11C403.37,325.12,403.37,325.12,403.72,325.12Zm0,1.2c0-.12,0-.13-.36-.1C403.36,326.34,403.36,326.34,403.72,326.32Zm0,2.71h-.38c0,.05,0,.11,0,.11h.34Zm0-1.5c0-.13,0-.13-.35-.1v.11Zm-.36,2.31V330h.37v-.12Zm.34,2.53c0-.12-.09-.15-.35-.1C403.34,332.39,403.34,332.39,403.69,332.37Zm0,.81,0-.06c-.07-.12-.21,0-.31-.05s-.05.05-.07.08l0,0Zm-.35.8h.36v-.1C403.38,333.84,403.34,333.85,403.33,334Zm0,1.2c.32,0,.36,0,.34-.1C403.33,335.06,403.33,335.06,403.33,335.18Zm.38,1.22c-.08-.19-.23-.09-.33-.11s-.05,0-.08.08l0,0Zm-.36-6.16c0,.11,0,.13.1.11s.23.08.27-.11Zm0,5.35h.35v-.11C403.35,335.45,403.32,335.46,403.33,335.59Zm.38-7.65c0-.13,0-.14-.36-.11v.11Zm-.35-.92c0,.13,0,.14.35.1C403.71,327,403.71,327,403.36,327Zm0,7.25c0,.13,0,.14.35.11,0-.06,0-.11-.07-.11Zm.39-8.86h-.36c0,.13,0,.13.36.11Zm-.37,5.64,0,0s.05.06.09.07h.23s0,0,.07-.05,0-.05-.08-.06Zm.34.52c0-.12,0-.12-.24-.12-.07,0-.15,0-.1.11Zm0,.39c0-.11-.12-.14-.35-.09C403.34,332,403.34,332,403.69,332Zm.05-2.52h-.38l0,0s.06.08.08.07S403.65,329.63,403.74,329.44Zm-.42,4s0,.1,0,.1h.32a.25.25,0,0,0,0-.1Z" transform="translate(-403 -322.24)"/><path class="cls-1" d="M405.63,322.37H406L406,337.12h-.37Z" transform="translate(-403 -322.24)"/><path d="M404.74,336.17a.33.33,0,0,1-.08.43.31.31,0,0,1-.35-.51A.33.33,0,0,1,404.74,336.17Zm-.14.32a.18.18,0,0,0,0-.25.19.19,0,0,0-.27,0,.19.19,0,0,0,0,.26A.19.19,0,0,0,404.6,336.49Z" transform="translate(-403 -322.24)"/><path d="M403.36,326.62h.71c0,.09,0,.12-.08.11h-.63Z" transform="translate(-403 -322.24)"/><path d="M404.06,336.73s-.07.07-.1.07h-.64v-.11H404Z" transform="translate(-403 -322.24)"/><path d="M404.11,324.65s-.07.07-.1.07h-.64v-.12h.72Z" transform="translate(-403 -322.24)"/><path d="M404.09,330.69s-.07.07-.1.07h-.64c0-.07,0-.12.07-.11h.63Z" transform="translate(-403 -322.24)"/><path d="M403.34,334.79c0-.09,0-.12.07-.12H404s.07,0,.1.07l0,0Z" transform="translate(-403 -322.24)"/><path d="M403.35,322.66s.07-.07.1-.07H404s.07.05.11.07l0,0h-.7Z" transform="translate(-403 -322.24)"/><path d="M403.36,328.63h.7l0,0s-.06.07-.09.07h-.57s-.07,0-.1-.06Z" transform="translate(-403 -322.24)"/><path d="M404.09,332.78h-.68s-.06,0-.1-.07l0,0H404S404.05,332.72,404.09,332.78Z" transform="translate(-403 -322.24)"/><path d="M403.35,328.22h.36v.12h-.35Z" transform="translate(-403 -322.24)"/><path d="M403.76,323.41c-.1.2-.26,0-.37.11C403.36,323.38,403.38,323.37,403.76,323.41Z" transform="translate(-403 -322.24)"/><path d="M403.37,324.31c0-.12,0-.13.36-.1v.1Z" transform="translate(-403 -322.24)"/><path d="M403.38,323h.27c.09,0,.11,0,.07.11C403.37,323.12,403.37,323.12,403.38,323Z" transform="translate(-403 -322.24)"/><path d="M403.36,325.82c.36,0,.36,0,.36.09C403.42,326,403.37,325.94,403.36,325.82Z" transform="translate(-403 -322.24)"/><path d="M403.67,336h-.35v-.11h.29s.06.05.09.07Z" transform="translate(-403 -322.24)"/><path d="M403.73,323.81v.1h-.34C403.36,323.78,403.4,323.77,403.73,323.81Z" transform="translate(-403 -322.24)"/><path d="M403.72,325.12c-.35,0-.35,0-.35-.11C403.68,325,403.72,325,403.72,325.12Z" transform="translate(-403 -322.24)"/><path d="M403.72,326.32c-.36,0-.36,0-.36-.1C403.69,326.19,403.72,326.2,403.72,326.32Z" transform="translate(-403 -322.24)"/><path d="M403.71,329v.12h-.34s0-.06,0-.11Z" transform="translate(-403 -322.24)"/><path d="M403.71,327.53h-.36v-.11C403.69,327.4,403.71,327.4,403.71,327.53Z" transform="translate(-403 -322.24)"/><path d="M403.35,329.84h.36V330h-.37Z" transform="translate(-403 -322.24)"/><path d="M403.69,332.37c-.35,0-.35,0-.35-.1C403.6,332.22,403.69,332.25,403.69,332.37Z" transform="translate(-403 -322.24)"/><path d="M403.68,333.18h-.33l0,0s.05-.09.07-.08.24-.07.31.05Z" transform="translate(-403 -322.24)"/><path d="M403.33,334c0-.13.05-.14.36-.1v.1Z" transform="translate(-403 -322.24)"/><path d="M403.33,335.18c0-.12,0-.12.34-.1C403.69,335.21,403.65,335.22,403.33,335.18Z" transform="translate(-403 -322.24)"/><path d="M403.71,336.4h-.38l0,0s.06-.08.08-.08S403.63,336.21,403.71,336.4Z" transform="translate(-403 -322.24)"/><path d="M403.35,330.24h.37c0,.19-.18.1-.27.11S403.34,330.35,403.35,330.24Z" transform="translate(-403 -322.24)"/><path d="M403.33,335.59c0-.13,0-.14.36-.1v.11Z" transform="translate(-403 -322.24)"/><path d="M403.71,327.94h-.36v-.11C403.67,327.8,403.7,327.81,403.71,327.94Z" transform="translate(-403 -322.24)"/><path d="M403.36,327c.35,0,.35,0,.35.1C403.38,327.16,403.36,327.15,403.36,327Z" transform="translate(-403 -322.24)"/><path d="M403.33,334.27h.28c.1,0,.09.05.07.11C403.37,334.41,403.34,334.4,403.33,334.27Z" transform="translate(-403 -322.24)"/><path d="M403.72,325.41v.11c-.34,0-.35,0-.36-.11Z" transform="translate(-403 -322.24)"/><path d="M403.35,331.05h.28s.05,0,.08.06,0,.05-.07.05h-.23s-.06-.05-.09-.07Z" transform="translate(-403 -322.24)"/><path d="M403.69,331.57h-.34c-.05-.12,0-.11.1-.11C403.7,331.45,403.7,331.45,403.69,331.57Z" transform="translate(-403 -322.24)"/><path d="M403.69,332c-.35,0-.35,0-.35-.09C403.57,331.82,403.69,331.85,403.69,332Z" transform="translate(-403 -322.24)"/><path d="M403.74,329.44c-.09.19-.23.08-.33.1s-.05-.05-.08-.07l0,0Z" transform="translate(-403 -322.24)"/><path d="M403.32,333.47h.37a.25.25,0,0,1,0,.1h-.32S403.33,333.51,403.32,333.47Z" transform="translate(-403 -322.24)"/><path class="cls-1" d="M404.6,336.49a.19.19,0,0,1-.26,0,.19.19,0,0,1,0-.26.19.19,0,0,1,.27,0A.18.18,0,0,1,404.6,336.49Z" transform="translate(-403 -322.24)"/><path d="M403.11,337.42v-.76c0-.71,0-1.41,0-2.12,0-.13,0-.17.16-.17l8.07,0,6.57,0c.19,0,.19,0,.19.19,0,.9,0,1.8,0,2.7,0,.12,0,.17-.16.17l-7.31,0-7.37,0Zm14.87-2.5-14.76.06v2.33l14.76-.05Zm-14.76-.06L418,334.8v-.36l-14.75,0v.38Z" transform="translate(-403 -322.24)"/><path class="cls-1" d="M418,334.92v2.34l-14.76.05V335Zm-1,.73a.32.32,0,0,0-.07.43.31.31,0,0,0,.42.07.31.31,0,1,0-.35-.5Zm-9.54,1.46h.11v-.62c0-.09,0-.13-.12-.09Zm10.1-.79,0,0v.72h.11v-.63S417.62,336.36,417.59,336.32Zm-12.08.05,0,0v.71h.12c0-.22,0-.43,0-.64C405.58,336.44,405.54,336.4,405.51,336.37Zm6,0,0,0c0,.21,0,.42,0,.64s0,.08.11.07v-.65S411.58,336.38,411.55,336.35Zm4.11.72v-.72l0,0s-.06.07-.07.1c0,.19,0,.37,0,.56S415.57,337.1,415.66,337.07Zm-12.13.07,0,0v-.71l0,0s-.07.07-.07.1a5.23,5.23,0,0,0,0,.56S403.5,337.11,403.53,337.14Zm6-.05.05,0s.06-.07.06-.1a5.42,5.42,0,0,0,0-.57s-.05-.06-.07-.09l0,0Zm4.14-.77c-.05,0-.11.06-.11.09v.67l.05,0s.06-.06.06-.1Zm-4.55.78h.12v-.35h-.11Zm-4.82-.37c0,.38,0,.4.12.37C404.33,337,404.47,336.82,404.27,336.73Zm.92.38v-.36h-.11C405.05,337.08,405.06,337.11,405.19,337.11Zm-1.33,0c.13,0,.13,0,.11-.34-.08,0-.12,0-.11.07Zm2.83,0c.12,0,.13-.07.09-.36C406.67,336.75,406.67,336.75,406.69,337.11Zm10.17-.39,0,0s-.07.06-.08.09a2.8,2.8,0,0,0,0,.29h.11Zm-12.18,0c0,.34,0,.38.1.35v-.34Zm1.31,0c-.13,0-.14,0-.11.35C406,337.11,406,337.11,406,336.76Zm1.2,0c-.12,0-.13,0-.1.35C407.21,337.11,407.21,337.11,407.19,336.75Zm2.71,0v.38l.1,0c0-.12,0-.23,0-.34Zm-1.5,0c-.13,0-.13,0-.1.36h.11Zm2.31.35h.12v-.37h-.11Zm2.52-.36c-.12,0-.14.09-.09.35C413.26,337.08,413.26,337.08,413.23,336.73Zm.81,0-.05,0c-.13.07,0,.21-.05.31s.05.05.08.08l0,0Zm.81.35v-.36h-.1C414.71,337,414.72,337.06,414.85,337.08Zm1.2,0c0-.33,0-.36-.1-.35C415.93,337.07,415.93,337.07,416.05,337.07Zm1.22-.39c-.19.08-.09.23-.11.33s0,.05.08.08l0,0Zm-6.16.4c.11,0,.13,0,.11-.1s.08-.22-.11-.27Zm5.35,0v-.36h-.1C416.32,337,416.33,337.07,416.46,337.07Zm-7.65-.33c-.13,0-.14.05-.11.36h.11Zm-.92.36c.13,0,.14,0,.1-.35C407.88,336.75,407.88,336.75,407.89,337.1Zm7.25,0c.13,0,.14-.05.11-.36-.07,0-.12,0-.11.07Zm-8.86-.33v.36c.13,0,.13,0,.1-.36Zm5.64.33,0,0s.06-.06.07-.09a.88.88,0,0,0,0-.23s0,0,0-.07-.06,0-.06.07A2.81,2.81,0,0,0,411.92,337.08Zm.51-.34c-.11,0-.11,0-.11.24,0,.06,0,.14.11.1Zm.4,0c-.12,0-.14.12-.09.36C412.86,337.08,412.86,337.08,412.83,336.73Zm-2.53,0v.38l0,0s.08-.06.07-.08S410.49,336.79,410.3,336.7Zm4,.39s.1,0,.1,0a1.71,1.71,0,0,0,0-.32h-.1Z" transform="translate(-403 -322.24)"/><path class="cls-1" d="M403.22,334.86v-.38l14.75,0v.36Z" transform="translate(-403 -322.24)"/><path d="M417,335.65a.31.31,0,1,1,.35.5.31.31,0,0,1-.42-.07A.32.32,0,0,1,417,335.65Zm.32.14a.18.18,0,0,0-.25,0,.19.19,0,0,0,0,.27.19.19,0,1,0,.29-.23Z" transform="translate(-403 -322.24)"/><path d="M407.49,337.11v-.72c.1,0,.12,0,.12.09v.62Z" transform="translate(-403 -322.24)"/><path d="M417.59,336.32s.08.07.08.11v.63h-.11v-.72Z" transform="translate(-403 -322.24)"/><path d="M405.51,336.37s.07.07.07.1c0,.21,0,.42,0,.64h-.12v-.71Z" transform="translate(-403 -322.24)"/><path d="M411.55,336.35s.07.06.08.09v.65c-.07,0-.11,0-.11-.07s0-.43,0-.64Z" transform="translate(-403 -322.24)"/><path d="M415.66,337.07c-.09,0-.12,0-.12-.08s0-.37,0-.56c0,0,0-.06.07-.1l0,0Z" transform="translate(-403 -322.24)"/><path d="M403.53,337.14s-.07-.06-.07-.1a5.23,5.23,0,0,1,0-.56s0-.07.07-.1l0,0v.71Z" transform="translate(-403 -322.24)"/><path d="M409.5,337.09v-.71l0,0s.07.06.07.09a5.42,5.42,0,0,1,0,.57s0,.06-.06.1Z" transform="translate(-403 -322.24)"/><path d="M413.64,336.32V337s0,.07-.06.1l-.05,0v-.67S413.59,336.36,413.64,336.32Z" transform="translate(-403 -322.24)"/><path d="M409.09,337.1v-.36h.11v.35Z" transform="translate(-403 -322.24)"/><path d="M404.27,336.73c.2.09.06.26.12.37C404.25,337.13,404.24,337.11,404.27,336.73Z" transform="translate(-403 -322.24)"/><path d="M405.19,337.11c-.13,0-.14,0-.12-.36h.11Z" transform="translate(-403 -322.24)"/><path d="M403.86,337.11v-.27c0-.09,0-.11.11-.07C404,337.12,404,337.12,403.86,337.11Z" transform="translate(-403 -322.24)"/><path d="M406.69,337.11c0-.36,0-.36.09-.36C406.82,337,406.81,337.1,406.69,337.11Z" transform="translate(-403 -322.24)"/><path d="M416.86,336.72v.35h-.11a2.8,2.8,0,0,1,0-.29s.05-.06.08-.09Z" transform="translate(-403 -322.24)"/><path d="M404.68,336.75h.1v.34C404.65,337.13,404.64,337.09,404.68,336.75Z" transform="translate(-403 -322.24)"/><path d="M406,336.76c0,.35,0,.35-.11.35C405.85,336.79,405.86,336.75,406,336.76Z" transform="translate(-403 -322.24)"/><path d="M407.19,336.75c0,.36,0,.36-.1.35C407.06,336.78,407.07,336.75,407.19,336.75Z" transform="translate(-403 -322.24)"/><path d="M409.9,336.73H410c0,.11,0,.22,0,.34l-.1,0Z" transform="translate(-403 -322.24)"/><path d="M408.4,336.74v.36h-.11C408.27,336.77,408.27,336.75,408.4,336.74Z" transform="translate(-403 -322.24)"/><path d="M410.71,337.09v-.36h.11v.37Z" transform="translate(-403 -322.24)"/><path d="M413.23,336.73c0,.35,0,.35-.09.35C413.09,336.82,413.11,336.73,413.23,336.73Z" transform="translate(-403 -322.24)"/><path d="M414,336.73v.34l0,0s-.09-.06-.08-.08-.08-.24.05-.31Z" transform="translate(-403 -322.24)"/><path d="M414.85,337.08c-.13,0-.14-.05-.1-.36h.1Z" transform="translate(-403 -322.24)"/><path d="M416.05,337.07c-.12,0-.12,0-.1-.35C416.07,336.71,416.08,336.74,416.05,337.07Z" transform="translate(-403 -322.24)"/><path d="M417.27,336.68v.38l0,0s-.08-.06-.08-.08S417.08,336.76,417.27,336.68Z" transform="translate(-403 -322.24)"/><path d="M411.11,337.08v-.37c.19.05.1.19.11.27S411.22,337.09,411.11,337.08Z" transform="translate(-403 -322.24)"/><path d="M416.46,337.07c-.13,0-.14,0-.1-.36h.1Z" transform="translate(-403 -322.24)"/><path d="M408.81,336.74v.36h-.11C408.67,336.79,408.68,336.75,408.81,336.74Z" transform="translate(-403 -322.24)"/><path d="M407.89,337.1c0-.35,0-.35.1-.35C408,337.08,408,337.1,407.89,337.1Z" transform="translate(-403 -322.24)"/><path d="M415.14,337.08v-.29c0-.09,0-.09.11-.07C415.28,337,415.27,337.07,415.14,337.08Z" transform="translate(-403 -322.24)"/><path d="M406.28,336.75h.1c0,.35,0,.35-.1.36Z" transform="translate(-403 -322.24)"/><path d="M411.92,337.08a2.81,2.81,0,0,1,0-.29s0,0,.06-.07,0,0,0,.07a.88.88,0,0,1,0,.23s0,.06-.07.09Z" transform="translate(-403 -322.24)"/><path d="M412.43,336.74v.34c-.12,0-.11,0-.11-.1C412.32,336.73,412.32,336.73,412.43,336.74Z" transform="translate(-403 -322.24)"/><path d="M412.83,336.73c0,.35,0,.35-.09.36C412.69,336.85,412.71,336.74,412.83,336.73Z" transform="translate(-403 -322.24)"/><path d="M410.3,336.7c.19.09.09.23.11.33s-.05.05-.07.08l0,0Z" transform="translate(-403 -322.24)"/><path d="M414.34,337.09v-.37h.1a1.71,1.71,0,0,1,0,.32S414.38,337.08,414.34,337.09Z" transform="translate(-403 -322.24)"/><path class="cls-1" d="M417.35,335.79a.19.19,0,1,1-.29.23.19.19,0,0,1,0-.27A.18.18,0,0,1,417.35,335.79Z" transform="translate(-403 -322.24)"/></svg>