<svg id="图层_1" data-name="图层 1" xmlns="http://www.w3.org/2000/svg" viewBox="0 0 15.5 15.5"><defs><style>.cls-1{opacity:0.7;}.cls-2{fill:#f5f7f7;}.cls-3,.cls-4{fill:none;stroke:#040000;stroke-miterlimit:8;}.cls-3{stroke-width:0.25px;}.cls-4{stroke-width:0.5px;opacity:0.6;}</style></defs><title>SQFT</title><g class="cls-1"><polyline class="cls-2" points="5.65 3.54 8.1 1.08 10.48 3.54"/><polyline class="cls-3" points="5.65 3.54 8.1 1.08 10.48 3.54"/><polyline class="cls-2" points="10.48 12.13 8.1 14.5 5.65 12.13"/><polyline class="cls-3" points="10.48 12.13 8.1 14.5 5.65 12.13"/><line class="cls-2" x1="8.1" y1="1.08" x2="8.1" y2="14.5"/><line class="cls-3" x1="8.1" y1="1.08" x2="8.1" y2="6.08"/><line class="cls-3" x1="8.1" y1="9.5" x2="8.1" y2="14.5"/><polyline class="cls-2" points="3.49 10.17 1.11 7.79 3.49 5.42"/><polyline class="cls-3" points="3.49 10.17 1.11 7.79 3.49 5.42"/><polyline class="cls-2" points="12.1 5.42 14.48 7.79 12.1 10.17"/><polyline class="cls-3" points="12.1 5.42 14.48 7.79 12.1 10.17"/><line class="cls-2" x1="1.11" y1="7.79" x2="14.48" y2="7.79"/><line class="cls-3" x1="1.11" y1="7.79" x2="6.11" y2="7.79"/><line class="cls-3" x1="9.48" y1="7.79" x2="14.48" y2="7.79"/></g><rect class="cls-4" x="0.25" y="0.25" width="15" height="15" rx="3"/></svg>