<svg id="图层_1" data-name="图层 1" xmlns="http://www.w3.org/2000/svg" viewBox="0 0 24.35 23.42"><defs><style>.cls-1{fill:#040000;}.cls-2{fill:none;stroke:#040000;stroke-miterlimit:8;stroke-width:0.75px;fill-rule:evenodd;}</style></defs><title>video</title><path class="cls-1" d="M426.62,326l6.28,4.26-6.28,4.27V326m0-.75a.74.74,0,0,0-.36.09.76.76,0,0,0-.39.66v8.53a.76.76,0,0,0,.39.66.74.74,0,0,0,.36.09.83.83,0,0,0,.42-.13l6.28-4.26a.76.76,0,0,0,0-1.25L427,325.41a.83.83,0,0,0-.42-.13Z" transform="translate(-416.49 -315.54)"/><path class="cls-2" d="M428.73,315.91a2.74,2.74,0,0,1,1.8.65l9,8,.39.38H437.1v13.66H420.36V324.93h-3l.38-.38,9-8a3.13,3.13,0,0,1,1.93-.65Z" transform="translate(-416.49 -315.54)"/></svg>