<svg id="图层_1" data-name="图层 1" xmlns="http://www.w3.org/2000/svg" viewBox="0 0 24.56 22.49"><defs><style>.cls-1{fill:none;stroke:#040000;stroke-miterlimit:10;stroke-width:0.25px;}.cls-2{opacity:0.7;}.cls-3{fill:#f5f7f7;}</style></defs><title>virtual</title><path class="cls-1" d="M422.47,324.78c-1.11,1.05-2,1.9-2.94,2.78-.31.3-.51.28-.76-.05-.73-1-1.49-1.95-2.23-2.9.09-.11.14-.21.16-.2,1.59.41,2.2-.36,2.82-1.78a11.17,11.17,0,0,1,21.3,5,11.2,11.2,0,0,1-21.88,2.88c-.09-.31-.67-.86.17-1.1s.87.22,1.05.78a9.9,9.9,0,1,0,12.48-12.32,10,10,0,0,0-12.3,5.85c-.26.69-.16,1,.6.95C421.36,324.67,421.77,324.73,422.47,324.78Z" transform="translate(-416.39 -316.03)"/><path class="cls-2" d="M433.88,330.07a2.33,2.33,0,0,1-2.26-2.62,2.36,2.36,0,0,1,2.27-2.53,2.43,2.43,0,0,1,2.29,2.65A2.36,2.36,0,0,1,433.88,330.07Zm-1.26-2.52c0,1,.5,1.6,1.27,1.59s1.27-.67,1.24-1.73-.55-1.6-1.32-1.56S432.6,326.57,432.62,327.55Z" transform="translate(-416.39 -316.03)"/><path class="cls-2" d="M430,325.11l-1,1.47.44.14c1.21.26,1.76,1,1.54,2.06a1.91,1.91,0,0,1-2.44,1.24,1.71,1.71,0,0,1-1.21-2.22,7.64,7.64,0,0,1,1.7-2.62C429.2,324.9,429.53,325,430,325.11Zm-.94,2.37a.81.81,0,0,0-.86.88c0,.62.39.87.95.87s.94-.26.94-.88S429.67,327.5,429,327.48Z" transform="translate(-416.39 -316.03)"/><path class="cls-2" d="M425,330.07a2,2,0,0,1-1.68-.72c-.14-.18-.39-.41-.09-.62s.5-.35.73,0a1,1,0,0,0,.78.48c.46,0,.87-.08,1-.57s-.21-.69-.63-.79c-.26-.06-.6,0-.64-.39s.3-.39.57-.42c.48-.07.71-.36.56-.81s-.7-.52-1.14-.36c-.21.07-.34.34-.54.48s-.48,0-.67-.11-.05-.31,0-.45a1.74,1.74,0,0,1,1.68-.87,1.61,1.61,0,0,1,1.56.87c.38.72-.07,1.16-.5,1.62a1.28,1.28,0,0,1,.65,1.61A1.62,1.62,0,0,1,425,330.07Z" transform="translate(-416.39 -316.03)"/><path d="M437.6,325.29c-.06.45-.28.74-.74.72s-.72-.36-.67-.85a.64.64,0,0,1,.77-.64C437.43,324.56,437.58,324.89,437.6,325.29Z" transform="translate(-416.39 -316.03)"/><circle class="cls-3" cx="20.5" cy="9.24" r="0.52"/></svg>